<svg xmlns="http://www.w3.org/2000/svg" class="svg-icon call-put-arrow injected-svg" viewBox="0 0 256 256" xml:space="preserve" style="fill-rule:evenodd;clip-rule:evenodd;stroke-linejoin:round;stroke-miterlimit:2" data-src="/themes/cabinet/svg/icons/call-arrow.svg"><path d="M44.695 153.9v56.878h25.536v-74.364l-4.025-4.025zm37.38 56.878h40.001v-41.203a20.2 20.2 0 0 1-8.427 1.846 20.17 20.17 0 0 1-14.36-5.949l-17.214-17.211zm91.85 0v-91.096l-40.001 40.001v51.095zm51.845 0V67.833l-40.001 40.001v102.944zM44.695 96.514v39.562l21.511-21.511 41.995 41.995a7.7 7.7 0 0 0 10.892 0l4.521-4.521c.232-.185.476-.35.692-.565l103.909-103.91 16.231 16.23c3.54 3.541 9.59 1.034 9.59-3.971V7.582a5.62 5.62 0 0 0-5.618-5.618h-52.241c-5.005 0-7.512 6.05-3.971 9.59l16.23 16.231-94.723 94.723-42.059-42.06a7.703 7.703 0 0 0-10.893 0z" style="fill-rule:nonzero" transform="translate(-44.69 45.233)"/></svg>