<svg xmlns="http://www.w3.org/2000/svg" class="svg-icon call-put-arrow injected-svg" viewBox="0 0 256 256" xml:space="preserve" style="fill-rule:evenodd;clip-rule:evenodd;stroke-linejoin:round;stroke-miterlimit:2" data-src="/themes/cabinet/svg/icons/put-arrow.svg">
  <path d="M70.231 107.837v121.946h-24.71V83.127zm11.847 121.946h40.001v-70.1l-40.001-39.999zm91.847 0v-81.525l-17.217 17.214a20.16 20.16 0 0 1-14.357 5.949c-2.96 0-5.814-.65-8.427-1.846v60.208zm11.847 0h40.001v-58.155h-29.596c-3.82 0-7.419-1.196-10.405-3.277zM45.521 25.737v39.566l86.17 86.171c.216.215.46.38.692.565l4.521 4.521a7.7 7.7 0 0 0 10.892 0l41.995-41.995 18.642 18.642-16.23 16.23c-3.538 3.538-1.034 9.59 3.971 9.59h52.241a5.62 5.62 0 0 0 5.618-5.618v-52.243c.003-5.003-6.047-7.509-9.587-3.972l-16.231 16.231-32.976-32.977a7.703 7.703 0 0 0-10.893 0l-8.889 8.89-33.167 33.17z" style="fill-rule:nonzero" transform="translate(-45.519 26.217)"/>
</svg>
